<svg width="2526" height="2506" viewBox="0 0 2526 2506" fill="none" xmlns="http://www.w3.org/2000/svg">
<g clip-path="url(#clip0_23_29)">
<path d="M2525.91 0H0.327148V2505.45H2525.91V0Z" fill="#FF9900"/>
<path d="M2171 1053.54C2171 1034.61 2163.42 1016.45 2149.95 1003.05C2136.46 989.65 2118.17 982.106 2099.08 982.072C2118.15 982.072 2136.45 974.556 2149.94 961.177C2163.42 947.798 2171 929.651 2171 910.729C2171.04 929.662 2178.64 947.809 2192.14 961.184C2205.65 974.559 2223.96 982.072 2243.04 982.072C2223.95 982.106 2205.64 989.646 2192.14 1003.04C2178.64 1016.44 2171.04 1034.6 2171 1053.54Z" stroke="#FBD8BF" stroke-width="8" stroke-linejoin="round"/>
<path d="M2026.73 714.052C2026.73 695.115 2019.05 676.951 2005.39 663.561C1991.72 650.169 1973.18 642.647 1953.86 642.647C1973.18 642.647 1991.72 635.124 2005.39 621.733C2019.05 608.342 2026.73 590.179 2026.73 571.242C2026.73 590.094 2034.33 608.181 2047.89 621.557C2061.44 634.935 2079.85 642.515 2099.08 642.647C2079.76 642.647 2061.23 650.169 2047.56 663.561C2033.9 676.951 2026.22 695.115 2026.22 714.052H2026.73Z" stroke="#FBD8BF" stroke-width="8" stroke-linejoin="round"/>
<path d="M412.648 1778.94C310.638 1714.35 240.641 1602.19 242.832 1476.65" stroke="#FBD8BF" stroke-width="8" stroke-linejoin="round"/>
<path d="M411.82 1779.49C466.12 1815.61 616.392 1887.85 783.08 1887.85" stroke="#FBD8BF" stroke-width="8"/>
<path d="M242.833 1476.65C242.833 1285.53 390.128 1128.71 578.448 1111.33C578.204 1105.89 577.595 1100.58 577.595 1095.15C577.595 961.867 686.666 853.817 821.059 853.817C886.307 853.817 945.469 879.411 989.049 920.82C1064.04 723.191 1255.88 582.061 1481.45 582.061C1772.15 582.061 2007.82 815.788 2007.82 1103.96V1104.2C2166.19 1155.27 2280.62 1302.68 2280.62 1476.65C2280.62 1581.12 2239.42 1676.06 2172.24 1746.3" stroke="#FBD8BF" stroke-width="8" stroke-linejoin="round"/>
<path d="M860.35 1486.18C836.009 1495.41 808.812 1500.02 778.76 1500.02C727.973 1500.02 689.508 1486.63 663.363 1459.84C637.218 1432.75 624.146 1393.15 624.146 1341.05C624.146 1289.55 637.819 1249.66 665.166 1221.38C692.513 1193.1 730.979 1178.96 780.564 1178.96C807.009 1178.96 832.102 1183.13 855.842 1191.46V1244.16C828.495 1238.2 806.107 1235.23 788.677 1235.23C757.424 1235.23 733.983 1243.41 718.357 1259.79C703.031 1276.16 695.367 1301.17 695.367 1334.8V1345.07C695.367 1378.42 702.881 1403.27 717.906 1419.65C732.932 1435.72 755.921 1443.76 786.874 1443.76C804.304 1443.76 828.796 1440.34 860.35 1433.49V1486.18Z" fill="#003181"/>
<path d="M1007.41 1489.76C994.786 1494.82 981.263 1497.35 966.838 1497.35C926.268 1497.35 905.984 1474.87 905.984 1429.92V1163.78H971.797V1424.56C971.797 1432.9 973.149 1438.85 975.853 1442.42C978.858 1445.69 983.667 1447.33 990.278 1447.33C994.485 1447.33 1000.19 1446.89 1007.41 1445.99V1489.76Z" fill="#003181"/>
<path d="M1150.5 1500.92C1114.73 1500.92 1086.79 1490.35 1066.65 1469.22C1046.52 1447.78 1036.45 1418.01 1036.45 1379.91C1036.45 1342.1 1046.52 1312.63 1066.65 1291.49C1086.79 1270.06 1114.73 1259.34 1150.5 1259.34C1186.26 1259.34 1214.2 1270.06 1234.34 1291.49C1254.47 1312.63 1264.54 1342.1 1264.54 1379.91C1264.54 1418.01 1254.47 1447.78 1234.34 1469.22C1214.2 1490.35 1186.26 1500.92 1150.5 1500.92ZM1150.5 1450.9C1182.05 1450.9 1197.83 1427.24 1197.83 1379.91C1197.83 1332.87 1182.05 1309.36 1150.5 1309.36C1118.94 1309.36 1103.16 1332.87 1103.16 1379.91C1103.16 1427.24 1118.94 1450.9 1150.5 1450.9Z" fill="#003181"/>
<path d="M1469.08 1494.22L1462.76 1470.11C1436.02 1490.65 1408.07 1500.92 1378.93 1500.92C1358.48 1500.92 1342.56 1494.96 1331.14 1483.06C1319.73 1470.86 1314.01 1454.19 1314.01 1433.05V1266.04H1379.82V1414.74C1379.82 1438.85 1390.34 1450.9 1411.38 1450.9C1427 1450.9 1442.33 1446.14 1457.36 1436.62V1266.04H1523.18V1494.22H1469.08Z" fill="#003181"/>
<path d="M1741.61 1494.22L1736.21 1474.13C1717.58 1490.8 1695.5 1499.13 1669.95 1499.13C1651.01 1499.13 1634.34 1494.52 1619.91 1485.29C1605.49 1475.77 1594.22 1462.07 1586.1 1444.21C1578.28 1426.35 1574.38 1405.35 1574.38 1381.25C1574.38 1344.33 1583.25 1314.86 1600.98 1292.83C1618.71 1270.5 1642.14 1259.34 1671.3 1259.34C1695.04 1259.34 1715.63 1266.04 1733.05 1279.43V1163.78H1798.87V1494.22H1741.61ZM1691.58 1450.01C1706 1450.01 1719.83 1445.84 1733.05 1437.51V1319.62C1720.13 1312.18 1705.26 1308.46 1688.43 1308.46C1672.5 1308.46 1660.63 1314.42 1652.81 1326.32C1645.01 1337.93 1641.1 1355.65 1641.1 1379.46C1641.1 1403.28 1645.15 1420.99 1653.27 1432.6C1661.68 1444.21 1674.46 1450.01 1691.58 1450.01Z" fill="#003181"/>
<path d="M1142.19 1900.23C1117.85 1909.46 1090.65 1914.07 1060.6 1914.07C1009.81 1914.07 971.346 1900.68 945.201 1873.89C919.056 1846.79 905.984 1807.2 905.984 1755.1C905.984 1703.6 919.657 1663.72 947.004 1635.43C974.351 1607.14 1012.82 1593.01 1062.4 1593.01C1088.85 1593.01 1113.94 1597.17 1137.68 1605.51V1658.2C1110.33 1652.25 1087.95 1649.27 1070.52 1649.27C1039.26 1649.27 1015.82 1657.47 1000.2 1673.84C984.869 1690.21 977.205 1715.22 977.205 1748.85V1759.12C977.205 1792.46 984.719 1817.32 999.745 1833.7C1014.77 1849.77 1037.76 1857.81 1068.71 1857.81C1086.14 1857.81 1110.63 1854.38 1142.19 1847.54V1900.23Z" fill="#003181"/>
<path d="M1289.24 1903.8C1276.63 1908.86 1263.1 1911.39 1248.68 1911.39C1208.11 1911.39 1187.82 1888.92 1187.82 1843.97V1577.83H1253.63V1838.61C1253.63 1846.94 1254.99 1852.9 1257.69 1856.47C1260.7 1859.74 1265.5 1861.38 1272.12 1861.38C1276.33 1861.38 1282.03 1860.93 1289.24 1860.04V1903.8Z" fill="#003181"/>
<path d="M1487.68 1908.27L1481.37 1884.16C1454.62 1904.69 1426.67 1914.96 1397.52 1914.96C1377.08 1914.96 1361.16 1909.01 1349.73 1897.11C1338.32 1884.9 1332.61 1868.22 1332.61 1847.09V1680.09H1398.43V1828.79C1398.43 1852.9 1408.94 1864.95 1429.97 1864.95C1445.6 1864.95 1460.93 1860.19 1475.95 1850.66V1680.09H1541.76V1908.27H1487.68Z" fill="#003181"/>
<path d="M1604.7 1908.27V1577.83H1670.51V1697.5C1679.22 1690.06 1689.45 1684.25 1701.17 1680.09C1712.89 1675.62 1724.45 1673.39 1735.87 1673.39C1765.03 1673.39 1788.01 1683.96 1804.84 1705.09C1821.97 1726.23 1830.54 1754.8 1830.54 1790.83C1830.54 1814.34 1826.62 1835.33 1818.81 1853.79C1811 1872.24 1799.73 1886.84 1785 1897.55C1770.28 1907.97 1753.31 1913.18 1734.07 1913.18C1720.25 1913.18 1707.33 1910.8 1695.31 1906.03C1683.29 1901.27 1673.22 1894.58 1665.1 1885.94L1659.24 1908.27H1604.7ZM1714.69 1722.51C1699.06 1722.51 1684.33 1726.53 1670.51 1734.56V1852C1683.73 1860.04 1698.46 1864.06 1714.69 1864.06C1731.51 1864.06 1743.84 1858.4 1751.65 1847.09C1759.76 1835.78 1763.83 1817.91 1763.83 1793.51C1763.83 1768.79 1759.91 1750.79 1752.1 1739.47C1744.29 1728.16 1731.81 1722.51 1714.69 1722.51Z" fill="#003181"/>
<path d="M1979.85 1845.31C1979.85 1839.35 1978.05 1834.74 1974.43 1831.47C1971.13 1828.19 1964.22 1824.62 1953.7 1820.75L1918.54 1806.9C1900.21 1799.76 1886.99 1790.98 1878.87 1780.56C1870.76 1770.13 1866.71 1756.89 1866.71 1740.81C1866.71 1720.56 1874.81 1704.34 1891.04 1692.14C1907.57 1679.64 1929.5 1673.39 1956.86 1673.39C1982.1 1673.39 2005.39 1678.3 2026.73 1688.12V1731.44C2003.88 1724.59 1982.55 1721.17 1962.72 1721.17C1950.39 1721.17 1941.37 1722.66 1935.67 1725.63C1929.96 1728.61 1927.11 1733.37 1927.11 1739.92C1927.11 1744.98 1928.76 1749.15 1932.07 1752.42C1935.67 1755.4 1943.03 1759.12 1954.15 1763.58L1988.41 1777.43C2007.04 1784.87 2020.26 1793.51 2028.08 1803.33C2036.2 1813.15 2040.25 1825.96 2040.25 1841.73C2040.25 1863.76 2031.69 1881.63 2014.55 1895.32C1997.72 1908.71 1975.48 1915.41 1947.84 1915.41C1916.89 1915.41 1889.54 1909.31 1865.8 1897.11V1853.79C1895.55 1863.02 1922.75 1867.63 1947.39 1867.63C1969.03 1867.63 1979.85 1860.19 1979.85 1845.31Z" fill="#003181"/>
<path d="M400.062 1053.42C399.997 1034.5 392.444 1016.39 379.06 1003.04C365.675 989.692 347.549 982.197 328.653 982.197C347.592 982.197 365.755 974.667 379.147 961.264C392.539 947.861 400.062 929.683 400.062 910.729C400.046 920.109 401.878 929.399 405.453 938.069C409.028 946.739 414.276 954.619 420.897 961.257C427.519 967.895 435.383 973.161 444.039 976.754C452.697 980.347 461.976 982.197 471.348 982.197C452.442 982.197 434.31 989.714 420.941 1003.09C407.573 1016.47 400.062 1034.62 400.062 1053.54V1053.42Z" stroke="#FBD8BF" stroke-width="8" stroke-linejoin="round"/>
<path d="M1000.46 493.573C1000.46 474.635 993.007 456.473 979.745 443.082C966.483 429.69 948.496 422.168 929.741 422.168C939.027 422.168 948.223 420.321 956.802 416.732C965.383 413.144 973.178 407.884 979.745 401.253C986.311 394.623 991.52 386.752 995.074 378.088C998.628 369.424 1000.46 360.139 1000.46 350.762C1000.46 360.139 1002.29 369.424 1005.84 378.088C1009.39 386.752 1014.6 394.623 1021.17 401.253C1027.74 407.884 1035.53 413.144 1044.11 416.732C1052.69 420.321 1061.89 422.168 1071.17 422.168C1052.42 422.168 1034.43 429.69 1021.17 443.082C1007.91 456.473 1000.46 474.635 1000.46 493.573Z" stroke="#FBD8BF" stroke-width="8" stroke-linejoin="round"/>
<path d="M398.799 1053.42C398.734 1034.5 391.181 1016.39 377.796 1003.04C364.412 989.692 346.286 982.197 327.39 982.197C346.329 982.197 364.492 974.667 377.884 961.264C391.275 947.861 398.799 929.683 398.799 910.729C398.783 920.109 400.615 929.399 404.19 938.069C407.765 946.739 413.013 954.619 419.634 961.257C426.256 967.895 434.119 973.161 442.776 976.754C451.434 980.347 460.713 982.197 470.085 982.197C451.178 982.197 433.047 989.714 419.678 1003.09C406.31 1016.47 398.799 1034.62 398.799 1053.54V1053.42Z" stroke="#FBD8BF" stroke-width="8" stroke-linejoin="round"/>
<path d="M725.674 654.422C725.674 659.058 726.179 662.816 727.063 665.572C728.073 668.328 729.336 671.334 731.104 674.591C731.735 675.593 731.988 676.596 731.988 677.473C731.988 678.725 731.23 679.978 729.588 681.231L721.633 686.492C720.496 687.244 719.36 687.62 718.35 687.62C717.087 687.62 715.824 686.993 714.561 685.866C712.793 683.987 711.278 681.982 710.015 679.978C708.752 677.848 707.49 675.468 706.101 672.587C696.251 684.112 683.875 689.874 668.974 689.874C658.367 689.874 649.906 686.868 643.719 680.855C637.531 674.842 634.374 666.824 634.374 656.803C634.374 646.154 638.162 637.511 645.865 630.997C653.568 624.482 663.797 621.225 676.804 621.225C681.097 621.225 685.517 621.601 690.189 622.227C694.862 622.854 699.66 623.856 704.711 624.983V615.839C704.711 606.318 702.691 599.678 698.776 595.795C694.735 591.912 687.916 590.032 678.193 590.032C673.773 590.032 669.227 590.534 664.555 591.661C659.882 592.788 655.336 594.166 650.917 595.92C648.896 596.797 647.381 597.298 646.497 597.549C645.613 597.799 644.981 597.925 644.476 597.925C642.708 597.925 641.824 596.672 641.824 594.041V587.903C641.824 585.898 642.077 584.395 642.708 583.518C643.34 582.641 644.476 581.765 646.244 580.888C650.664 578.633 655.968 576.754 662.155 575.25C668.343 573.622 674.91 572.87 681.855 572.87C696.882 572.87 707.868 576.253 714.94 583.017C721.885 589.782 725.421 600.054 725.421 613.834V654.422H725.674ZM674.404 673.464C678.572 673.464 682.865 672.712 687.411 671.209C691.957 669.706 695.998 666.95 699.408 663.192C701.428 660.811 702.944 658.181 703.701 655.174C704.459 652.168 704.964 648.535 704.964 644.275V639.014C701.302 638.137 697.387 637.385 693.346 636.884C689.305 636.383 685.391 636.133 681.476 636.133C673.015 636.133 666.828 637.761 662.661 641.144C658.493 644.526 656.473 649.286 656.473 655.55C656.473 661.438 657.988 665.822 661.145 668.829C664.176 671.961 668.596 673.464 674.404 673.464ZM775.807 686.993C773.533 686.993 772.018 686.617 771.008 685.741C769.998 684.989 769.114 683.235 768.356 680.855L738.681 584.019C737.923 581.514 737.544 579.885 737.544 579.009C737.544 577.004 738.554 575.877 740.575 575.877H752.95C755.349 575.877 756.991 576.253 757.875 577.129C758.885 577.881 759.643 579.635 760.401 582.015L781.615 664.945L801.315 582.015C801.946 579.51 802.704 577.881 803.714 577.129C804.724 576.378 806.492 575.877 808.765 575.877H818.868C821.267 575.877 822.909 576.253 823.919 577.129C824.929 577.881 825.813 579.635 826.318 582.015L846.27 665.947L868.117 582.015C868.874 579.51 869.758 577.881 870.642 577.129C871.652 576.378 873.294 575.877 875.567 575.877H887.311C889.331 575.877 890.468 576.879 890.468 579.009C890.468 579.635 890.342 580.261 890.215 581.013C890.089 581.764 889.837 582.767 889.331 584.145L858.898 680.98C858.14 683.486 857.256 685.114 856.246 685.866C855.236 686.617 853.594 687.118 851.448 687.118H840.588C838.188 687.118 836.547 686.743 835.537 685.866C834.526 684.989 833.642 683.36 833.137 680.855L813.564 600.054L794.117 680.73C793.486 683.235 792.728 684.864 791.718 685.741C790.707 686.617 788.94 686.993 786.667 686.993H775.807ZM938.075 690.376C931.509 690.376 924.942 689.624 918.628 688.121C912.314 686.617 907.389 684.989 904.106 683.11C902.086 681.982 900.696 680.73 900.191 679.602C899.686 678.475 899.434 677.222 899.434 676.095V669.706C899.434 667.075 900.444 665.822 902.338 665.822C903.096 665.822 903.853 665.947 904.611 666.198C905.369 666.449 906.505 666.95 907.768 667.451C912.062 669.33 916.734 670.833 921.659 671.835C926.71 672.837 931.635 673.339 936.686 673.339C944.642 673.339 950.829 671.961 955.123 669.205C959.416 666.449 961.689 662.44 961.689 657.304C961.689 653.796 960.553 650.915 958.28 648.535C956.007 646.154 951.713 644.025 945.526 642.02L927.215 636.383C917.997 633.502 911.178 629.243 907.01 623.605C902.843 618.093 900.697 611.955 900.697 605.441C900.697 600.18 901.833 595.544 904.106 591.536C906.379 587.527 909.41 584.019 913.198 581.263C916.987 578.382 921.28 576.253 926.331 574.749C931.382 573.246 936.686 572.62 942.242 572.62C945.02 572.62 947.925 572.745 950.703 573.121C953.607 573.497 956.259 573.998 958.911 574.499C961.437 575.125 963.836 575.751 966.109 576.503C968.382 577.255 970.15 578.006 971.413 578.758C973.181 579.76 974.443 580.762 975.201 581.89C975.959 582.892 976.338 584.27 976.338 586.024V591.912C976.338 594.542 975.327 595.92 973.433 595.92C972.423 595.92 970.781 595.419 968.635 594.417C961.437 591.16 953.355 589.531 944.389 589.531C937.191 589.531 931.509 590.659 927.594 593.039C923.679 595.419 921.659 599.052 921.659 604.188C921.659 607.696 922.922 610.702 925.447 613.083C927.973 615.463 932.645 617.843 939.338 619.973L957.27 625.61C966.362 628.491 972.928 632.5 976.843 637.636C980.757 642.772 982.652 648.66 982.652 655.174C982.652 660.561 981.515 665.446 979.368 669.706C977.095 673.965 974.065 677.723 970.15 680.73C966.235 683.861 961.563 686.116 956.133 687.745C950.45 689.499 944.515 690.376 938.075 690.376Z" fill="#003181"/>
<path d="M961.942 751.258C920.396 781.699 860.035 797.859 808.134 797.859C735.398 797.859 669.859 771.176 620.357 726.83C616.443 723.322 619.979 718.562 624.651 721.318C678.193 752.135 744.237 770.8 812.554 770.8C858.646 770.8 909.284 761.28 955.881 741.737C962.826 738.605 968.761 746.247 961.942 751.258Z" fill="#003181"/>
<path d="M979.242 731.715C973.938 724.951 944.137 728.458 930.625 730.087C926.584 730.588 925.952 727.08 929.614 724.45C953.355 707.914 992.375 712.674 996.921 718.186C1001.47 723.823 995.658 762.532 973.433 781.073C970.024 783.954 966.74 782.451 968.256 778.692C973.307 766.29 984.546 738.355 979.242 731.715Z" fill="#003181"/>
<path d="M977.766 2119.57C980.79 2123.24 983.328 2126.05 985.38 2127.99C987.54 2129.93 989.538 2131.28 991.374 2132.04C993.318 2132.69 995.478 2133.01 997.854 2133.01L992.184 2146.13C987.432 2146.13 983.328 2145.16 979.872 2143.22C976.524 2141.27 972.96 2137.93 969.18 2133.17L937.428 2092.67L928.194 2145H912.804L932.73 2031.6H948.12L939.21 2081.98L992.994 2031.92L1002.39 2042.29L952.17 2087.33L977.766 2119.57ZM1019.61 2145L1006.97 2061.89L1021.07 2059.95L1030.62 2128.8L1061.24 2066.75H1076.63L1085.06 2128.8L1119.08 2059.95L1131.06 2066.11L1090.73 2145H1074.69L1066.26 2083.12L1035.65 2145H1019.61ZM1132.53 2111.79C1132.53 2101.31 1134.8 2092.13 1139.33 2084.25C1143.98 2076.26 1150.35 2070.05 1158.45 2065.62C1166.55 2061.08 1175.78 2058.82 1186.15 2058.82C1192.52 2058.82 1198.09 2059.46 1202.84 2060.76C1207.7 2062.06 1211.69 2063.35 1214.83 2064.65L1204.62 2122.16C1204.51 2122.7 1204.4 2123.35 1204.3 2124.1C1204.3 2124.75 1204.3 2125.45 1204.3 2126.21C1204.3 2129.23 1205.16 2131.39 1206.89 2132.69C1208.62 2133.88 1210.88 2134.47 1213.69 2134.47L1208.67 2145.81C1202.84 2145.81 1198.36 2144.41 1195.22 2141.6C1192.2 2138.68 1190.69 2134.2 1190.69 2128.15C1187.66 2133.34 1183.83 2137.76 1179.19 2141.44C1174.65 2145.11 1169.3 2146.94 1163.15 2146.94C1157.86 2146.94 1152.89 2145.54 1148.24 2142.73C1143.6 2139.82 1139.82 2135.77 1136.9 2130.58C1133.99 2125.29 1132.53 2119.03 1132.53 2111.79ZM1198.79 2073.23C1196.74 2072.59 1194.58 2072.1 1192.31 2071.78C1190.15 2071.34 1187.5 2071.13 1184.37 2071.13C1176.92 2071.13 1170.44 2072.8 1164.93 2076.15C1159.42 2079.5 1155.1 2084.14 1151.97 2090.08C1148.95 2095.91 1147.43 2102.56 1147.43 2110.01C1147.43 2115.19 1148.35 2119.57 1150.19 2123.13C1152.13 2126.69 1154.62 2129.39 1157.64 2131.23C1160.66 2133.07 1163.8 2133.98 1167.04 2133.98C1171.46 2133.98 1175.51 2132.47 1179.19 2129.45C1182.86 2126.42 1185.99 2122.21 1188.58 2116.81C1191.28 2111.41 1193.23 2105.26 1194.41 2098.34L1198.79 2073.23ZM1281.37 2071.61C1277.59 2071.61 1273.49 2073.02 1269.06 2075.83C1264.63 2078.63 1260.53 2083.01 1256.75 2088.95C1253.08 2094.78 1250.43 2102.29 1248.81 2111.47L1242.98 2145H1228.4L1243.14 2060.76H1257.24L1253.67 2080.2C1257.02 2073.72 1261.5 2068.54 1267.12 2064.65C1272.84 2060.76 1278.84 2058.82 1285.1 2058.82C1292.44 2058.82 1298.33 2061.08 1302.76 2065.62C1307.19 2070.05 1309.4 2075.5 1309.4 2081.98C1309.4 2084.68 1309.08 2088.08 1308.43 2092.19L1299.19 2145H1284.61L1293.52 2094.62C1294.06 2092.03 1294.39 2090.14 1294.5 2088.95C1294.6 2087.65 1294.66 2086.46 1294.66 2085.38C1294.66 2081.17 1293.42 2077.82 1290.93 2075.34C1288.56 2072.86 1285.37 2071.61 1281.37 2071.61ZM1377.26 2058.82C1383.63 2058.82 1389.24 2059.46 1394.1 2060.76C1398.96 2062.06 1402.96 2063.35 1406.09 2064.65L1392 2145.97C1390.7 2153.42 1388.7 2159.53 1386 2164.28C1383.41 2169.03 1380.33 2172.7 1376.77 2175.29C1373.31 2177.99 1369.64 2179.88 1365.75 2180.96C1361.87 2182.04 1358.03 2182.58 1354.25 2182.58C1346.91 2182.58 1340.64 2181.07 1335.46 2178.05C1330.38 2175.02 1326.23 2171.51 1322.99 2167.52L1334.33 2159.09C1339.62 2166.33 1346.58 2169.95 1355.22 2169.95C1360.62 2169.95 1365.38 2167.95 1369.48 2163.95C1373.58 2159.96 1376.5 2153.15 1378.23 2143.54L1380.98 2127.67C1377.96 2132.53 1374.18 2136.63 1369.64 2139.98C1365.21 2143.33 1360.19 2145 1354.58 2145C1349.39 2145 1344.42 2143.7 1339.67 2141.11C1335.03 2138.52 1331.19 2134.74 1328.17 2129.77C1325.25 2124.8 1323.8 2118.7 1323.8 2111.47C1323.8 2100.99 1326.12 2091.81 1330.76 2083.93C1335.41 2076.04 1341.78 2069.89 1349.88 2065.46C1357.98 2061.03 1367.1 2058.82 1377.26 2058.82ZM1338.7 2109.85C1338.7 2114.71 1339.62 2118.81 1341.45 2122.16C1343.4 2125.4 1345.88 2127.88 1348.91 2129.61C1351.93 2131.23 1355.12 2132.04 1358.46 2132.04C1362.57 2132.04 1366.46 2130.58 1370.13 2127.67C1373.8 2124.75 1376.99 2120.65 1379.69 2115.35C1382.49 2110.06 1384.55 2103.85 1385.84 2096.72L1390.05 2073.23C1388 2072.59 1385.84 2072.1 1383.57 2071.78C1381.31 2071.34 1378.66 2071.13 1375.64 2071.13C1368.4 2071.13 1361.97 2072.86 1356.36 2076.31C1350.85 2079.66 1346.53 2084.25 1343.4 2090.08C1340.27 2095.91 1338.7 2102.5 1338.7 2109.85ZM1432.36 2145L1419.72 2061.89L1433.82 2059.95L1443.38 2128.8L1473.99 2066.75H1489.38L1497.81 2128.8L1531.83 2059.95L1543.82 2066.11L1503.48 2145H1487.44L1479.02 2083.12L1448.4 2145H1432.36ZM1584.32 2146.94C1576.33 2146.94 1569.42 2145.32 1563.59 2142.08C1557.76 2138.84 1553.22 2134.36 1549.98 2128.64C1546.85 2122.81 1545.28 2116.22 1545.28 2108.87C1545.28 2099.48 1547.17 2091 1550.95 2083.44C1554.84 2075.88 1560.24 2069.89 1567.15 2065.46C1574.06 2061.03 1582.22 2058.82 1591.61 2058.82C1599.61 2058.82 1606.52 2060.44 1612.35 2063.68C1618.18 2066.92 1622.66 2071.4 1625.8 2077.12C1629.04 2082.85 1630.66 2089.43 1630.66 2096.89C1630.66 2106.17 1628.77 2114.65 1624.99 2122.32C1621.21 2129.88 1615.81 2135.87 1608.79 2140.3C1601.87 2144.73 1593.72 2146.94 1584.32 2146.94ZM1584.81 2133.98C1591.29 2133.98 1596.8 2132.42 1601.33 2129.29C1605.98 2126.05 1609.54 2121.73 1612.03 2116.33C1614.51 2110.93 1615.75 2104.88 1615.75 2098.18C1615.75 2093.21 1614.78 2088.79 1612.84 2084.9C1610.89 2080.9 1608.08 2077.72 1604.41 2075.34C1600.74 2072.96 1596.31 2071.78 1591.13 2071.78C1584.76 2071.78 1579.25 2073.4 1574.6 2076.64C1569.96 2079.77 1566.4 2084.03 1563.91 2089.43C1561.43 2094.83 1560.19 2100.88 1560.19 2107.58C1560.19 2112.44 1561.16 2116.87 1563.1 2120.86C1565.05 2124.86 1567.85 2128.04 1571.53 2130.42C1575.2 2132.8 1579.63 2133.98 1584.81 2133.98ZM1681.62 2146.94C1673.63 2146.94 1666.71 2145.32 1660.88 2142.08C1655.05 2138.84 1650.51 2134.36 1647.27 2128.64C1644.14 2122.81 1642.58 2116.22 1642.58 2108.87C1642.58 2099.48 1644.47 2091 1648.25 2083.44C1652.13 2075.88 1657.53 2069.89 1664.45 2065.46C1671.36 2061.03 1679.51 2058.82 1688.91 2058.82C1696.9 2058.82 1703.81 2060.44 1709.64 2063.68C1715.48 2066.92 1719.96 2071.4 1723.09 2077.12C1726.33 2082.85 1727.95 2089.43 1727.95 2096.89C1727.95 2106.17 1726.06 2114.65 1722.28 2122.32C1718.5 2129.88 1713.1 2135.87 1706.08 2140.3C1699.17 2144.73 1691.01 2146.94 1681.62 2146.94ZM1682.1 2133.98C1688.58 2133.98 1694.09 2132.42 1698.63 2129.29C1703.27 2126.05 1706.84 2121.73 1709.32 2116.33C1711.8 2110.93 1713.05 2104.88 1713.05 2098.18C1713.05 2093.21 1712.07 2088.79 1710.13 2084.9C1708.19 2080.9 1705.38 2077.72 1701.71 2075.34C1698.03 2072.96 1693.61 2071.78 1688.42 2071.78C1682.05 2071.78 1676.54 2073.4 1671.9 2076.64C1667.25 2079.77 1663.69 2084.03 1661.21 2089.43C1658.72 2094.83 1657.48 2100.88 1657.48 2107.58C1657.48 2112.44 1658.45 2116.87 1660.4 2120.86C1662.34 2124.86 1665.15 2128.04 1668.82 2130.42C1672.49 2132.8 1676.92 2133.98 1682.1 2133.98ZM1792.84 2071.61C1789.06 2071.61 1784.96 2073.02 1780.53 2075.83C1776.1 2078.63 1772 2083.01 1768.22 2088.95C1764.55 2094.78 1761.9 2102.29 1760.28 2111.47L1754.45 2145H1739.87L1754.61 2060.76H1768.71L1765.14 2080.2C1768.49 2073.72 1772.97 2068.54 1778.59 2064.65C1784.31 2060.76 1790.31 2058.82 1796.57 2058.82C1803.91 2058.82 1809.8 2061.08 1814.23 2065.62C1818.66 2070.05 1820.87 2075.5 1820.87 2081.98C1820.87 2084.68 1820.55 2088.08 1819.9 2092.19L1810.66 2145H1796.08L1804.99 2094.62C1805.53 2092.03 1805.86 2090.14 1805.97 2088.95C1806.07 2087.65 1806.13 2086.46 1806.13 2085.38C1806.13 2081.17 1804.89 2077.82 1802.4 2075.34C1800.03 2072.86 1796.84 2071.61 1792.84 2071.61ZM1972.61 2145.81C1966.67 2145.81 1962.14 2144.41 1959 2141.6C1955.87 2138.68 1954.31 2134.2 1954.31 2128.15V2124.59C1949.99 2131.39 1944.86 2136.85 1938.92 2140.95C1933.08 2144.95 1926.17 2146.94 1918.18 2146.94C1912.67 2146.94 1907.6 2145.76 1902.95 2143.38C1898.42 2141 1894.74 2137.49 1891.94 2132.85C1889.24 2128.1 1887.89 2122.37 1887.89 2115.68C1887.89 2113.19 1887.99 2110.93 1888.21 2108.87C1888.43 2106.71 1888.75 2104.34 1889.18 2101.75L1901.17 2031.6H1916.56L1904.09 2105.15C1903.76 2107.09 1903.55 2108.77 1903.44 2110.17C1903.33 2111.47 1903.28 2112.92 1903.28 2114.54C1903.28 2120.38 1905 2125.02 1908.46 2128.48C1911.92 2131.82 1916.61 2133.5 1922.55 2133.5C1927.52 2133.5 1932.44 2131.99 1937.3 2128.96C1942.26 2125.94 1946.58 2121.51 1950.26 2115.68C1954.04 2109.85 1956.63 2102.77 1958.03 2094.46L1969.21 2031.6H1984.6L1968.72 2121.35C1968.62 2121.89 1968.51 2122.54 1968.4 2123.29C1968.4 2123.94 1968.4 2124.64 1968.4 2125.4C1968.4 2128.31 1969.21 2130.42 1970.83 2131.72C1972.56 2133.01 1974.93 2133.66 1977.96 2133.66L1972.61 2145.81ZM2047.08 2071.61C2043.3 2071.61 2039.19 2073.02 2034.77 2075.83C2030.34 2078.63 2026.23 2083.01 2022.45 2088.95C2018.78 2094.78 2016.14 2102.29 2014.52 2111.47L2008.68 2145H1994.1L2008.85 2060.76H2022.94L2019.38 2080.2C2022.72 2073.72 2027.21 2068.54 2032.82 2064.65C2038.55 2060.76 2044.54 2058.82 2050.8 2058.82C2058.15 2058.82 2064.03 2061.08 2068.46 2065.62C2072.89 2070.05 2075.1 2075.5 2075.1 2081.98C2075.1 2084.68 2074.78 2088.08 2074.13 2092.19L2064.9 2145H2050.32L2059.23 2094.62C2059.77 2092.03 2060.09 2090.14 2060.2 2088.95C2060.31 2087.65 2060.36 2086.46 2060.36 2085.38C2060.36 2081.17 2059.12 2077.82 2056.64 2075.34C2054.26 2072.86 2051.07 2071.61 2047.08 2071.61ZM2114.93 2046.34C2111.91 2046.34 2109.59 2045.48 2107.97 2043.75C2106.46 2041.91 2105.7 2039.81 2105.7 2037.43C2105.7 2033.98 2106.78 2031.22 2108.94 2029.17C2111.1 2027.01 2113.8 2025.93 2117.04 2025.93C2120.06 2025.93 2122.33 2026.85 2123.84 2028.68C2125.46 2030.41 2126.27 2032.46 2126.27 2034.84C2126.27 2038.19 2125.19 2040.94 2123.03 2043.1C2120.87 2045.26 2118.17 2046.34 2114.93 2046.34ZM2104.08 2145H2089.5L2104.24 2060.76H2118.82L2104.08 2145ZM2130.95 2062.7L2144.72 2059.14L2161.41 2128.8L2201.74 2059.14L2213.57 2066.11L2166.27 2145H2151.2L2130.95 2062.7ZM2208.78 2146.94C2205.76 2146.94 2203.33 2146.03 2201.49 2144.19C2199.65 2142.25 2198.74 2140.09 2198.74 2137.71C2198.74 2133.71 2199.98 2130.64 2202.46 2128.48C2204.95 2126.32 2207.7 2125.24 2210.72 2125.24C2213.86 2125.24 2216.29 2126.15 2218.01 2127.99C2219.85 2129.83 2220.77 2131.99 2220.77 2134.47C2220.77 2138.47 2219.53 2141.54 2217.04 2143.7C2214.67 2145.86 2211.91 2146.94 2208.78 2146.94Z" fill="#003181"/>
</g>
<defs>
<clipPath id="clip0_23_29">
<rect width="2525.58" height="2505.45" fill="white" transform="translate(0.327148)"/>
</clipPath>
</defs>
</svg>
